<?xml version="1.0" encoding="UTF-8"?>
<svg version="1.1" xmlns="http://www.w3.org/2000/svg" width="32" height="32">
<path d="M0 0 C10.56 0 21.12 0 32 0 C32 10.56 32 21.12 32 32 C21.44 32 10.88 32 0 32 C0 21.44 0 10.88 0 0 Z " fill="#0C0B0A" transform="translate(0,0)"/>
<path d="M0 0 C1.98 0 3.96 0 6 0 C6.50367757 1.45706726 7.00282556 2.91570096 7.5 4.375 C7.91765625 5.59316406 7.91765625 5.59316406 8.34375 6.8359375 C9 9 9 9 9 11 C9.66 11 10.32 11 11 11 C11.144375 9.9275 11.28875 8.855 11.4375 7.75 C11.83749442 5.08337051 12.27591924 2.58600271 13 0 C15.31 0 17.62 0 20 0 C19.81824219 0.53367187 19.63648437 1.06734375 19.44921875 1.6171875 C17.5063945 7.37591783 15.71615568 13.16993922 14 19 C11.36 19 8.72 19 6 19 C4.99394407 16.39802798 3.99497475 13.79370638 3 11.1875 C2.57074219 10.08051758 2.57074219 10.08051758 2.1328125 8.95117188 C1.86210937 8.23896484 1.59140625 7.52675781 1.3125 6.79296875 C1.06113281 6.1383667 0.80976562 5.48376465 0.55078125 4.80932617 C0 3 0 3 0 0 Z " fill="#E8A442" transform="translate(7,6)"/>
</svg>
